<?xml version="1.0" standalone="no"?>
<!DOCTYPE svg PUBLIC "-//W3C//DTD SVG 20010904//EN"
 "http://www.w3.org/TR/2001/REC-SVG-20010904/DTD/svg10.dtd">
<svg version="1.0" xmlns="http://www.w3.org/2000/svg"
 width="580.000000pt" height="580.000000pt" viewBox="0 0 580.000000 580.000000"
 preserveAspectRatio="xMidYMid meet">
<metadata>
Created by potrace 1.14, written by Peter Selinger 2001-2017
</metadata>
<g transform="translate(0.000000,580.000000) scale(0.100000,-0.100000)"
fill="#000000" stroke="none">
<path d="M0 2900 l0 -2900 2900 0 2900 0 0 2900 0 2900 -2900 0 -2900 0 0
-2900z m678 143 l2 -823 440 0 440 0 0 -150 0 -150 -620 0 -620 0 0 968 c0
533 3 972 7 976 4 3 84 5 177 4 l171 -3 3 -822z m1958 817 c155 -12 261 -37
369 -89 314 -150 467 -438 466 -876 -1 -327 -81 -554 -257 -730 -92 -91 -159
-135 -282 -181 -146 -55 -246 -64 -696 -64 l-396 0 0 975 0 975 333 0 c182 0
391 -5 463 -10z m1930 -664 l469 -674 5 671 5 672 175 0 175 0 3 -972 2 -973
-162 0 -163 1 -465 672 -465 672 -3 -673 -2 -672 -180 0 -180 0 0 975 0 975
159 0 159 0 468 -674z"/>
<path d="M2192 2893 l3 -668 155 -3 c180 -4 310 9 397 39 168 56 293 205 340
406 25 106 25 358 0 458 -57 226 -204 376 -412 420 -49 10 -133 15 -278 15
l-207 0 2 -667z"/>
</g>
</svg>
